<?xml version="1.0" encoding="UTF-8"?>
<!-- Do not edit this file with editors other than draw.io -->
<!DOCTYPE svg PUBLIC "-//W3C//DTD SVG 1.1//EN" "http://www.w3.org/Graphics/SVG/1.1/DTD/svg11.dtd">
<svg xmlns="http://www.w3.org/2000/svg" xmlns:xlink="http://www.w3.org/1999/xlink" version="1.1" width="105" height="117" viewBox="-0.5 -0.5 105 117" class="ge-export-svg-dark" content="&lt;mxfile host=&quot;app.diagrams.net&quot; agent=&quot;Mozilla/5.0 (Windows NT 10.0; Win64; x64) AppleWebKit/537.36 (KHTML, like Gecko) Chrome/128.0.0.0 Safari/537.36&quot; version=&quot;24.7.7&quot; scale=&quot;1&quot; border=&quot;0&quot;&gt;&#10;  &lt;diagram name=&quot;Página-1&quot; id=&quot;zMP4tCyDCyNLjbnnK457&quot;&gt;&#10;    &lt;mxGraphModel dx=&quot;201&quot; dy=&quot;189&quot; grid=&quot;0&quot; gridSize=&quot;10&quot; guides=&quot;1&quot; tooltips=&quot;1&quot; connect=&quot;1&quot; arrows=&quot;1&quot; fold=&quot;1&quot; page=&quot;0&quot; pageScale=&quot;1&quot; pageWidth=&quot;827&quot; pageHeight=&quot;1169&quot; math=&quot;0&quot; shadow=&quot;0&quot;&gt;&#10;      &lt;root&gt;&#10;        &lt;mxCell id=&quot;0&quot; /&gt;&#10;        &lt;mxCell id=&quot;1&quot; parent=&quot;0&quot; /&gt;&#10;        &lt;mxCell id=&quot;2&quot; value=&quot;&quot; style=&quot;html=1;aspect=fixed;strokeColor=none;shadow=1;fillColor=#f078ba;verticalAlign=top;labelPosition=center;verticalLabelPosition=bottom;shape=mxgraph.gcp2.lock;labelBackgroundColor=none;gradientColor=#385755;shadowOffsetX=10;shadowOpacity=25;strokeWidth=2;perimeterSpacing=1;rounded=1;&quot; vertex=&quot;1&quot; parent=&quot;1&quot;&gt;&#10;          &lt;mxGeometry x=&quot;146&quot; y=&quot;79&quot; width=&quot;78&quot; height=&quot;100&quot; as=&quot;geometry&quot; /&gt;&#10;        &lt;/mxCell&gt;&#10;        &lt;mxCell id=&quot;3&quot; value=&quot;&quot; style=&quot;html=1;aspect=fixed;strokeColor=none;shadow=1;fillColor=#f078ba;verticalAlign=top;labelPosition=center;verticalLabelPosition=bottom;shape=mxgraph.gcp2.lock;labelBackgroundColor=none;gradientColor=#385755;shadowOffsetX=10;shadowOpacity=25;strokeWidth=2;perimeterSpacing=1;rounded=1;&quot; vertex=&quot;1&quot; parent=&quot;1&quot;&gt;&#10;          &lt;mxGeometry x=&quot;143&quot; y=&quot;79&quot; width=&quot;78&quot; height=&quot;100&quot; as=&quot;geometry&quot; /&gt;&#10;        &lt;/mxCell&gt;&#10;      &lt;/root&gt;&#10;    &lt;/mxGraphModel&gt;&#10;  &lt;/diagram&gt;&#10;&lt;/mxfile&gt;&#10;"><defs><linearGradient x1="0%" y1="0%" x2="0%" y2="100%" id="mx-gradient-f078ba-1-385755-1-s-0"><stop offset="0%" style="stop-color: rgb(240, 120, 186); stop-opacity: 1;"/><stop offset="100%" style="stop-color: rgb(56, 87, 85); stop-opacity: 1;"/></linearGradient><style type="text/css">svg.ge-export-svg-dark:not(mjx-container &gt; svg) { filter: invert(100%) hue-rotate(180deg); }&#xa;svg.ge-export-svg-dark foreignObject img,&#xa;svg.ge-export-svg-dark image:not(svg.ge-export-svg-dark switch image),&#xa;svg.ge-export-svg-dark svg:not(mjx-container &gt; svg)&#xa;{ filter: invert(100%) hue-rotate(180deg) }</style><filter id="dropShadow"><feGaussianBlur in="SourceAlpha" stdDeviation="1.7" result="blur"/><feOffset in="blur" dx="3" dy="3" result="offsetBlur"/><feFlood flood-color="#3D4574" flood-opacity="0.4" result="offsetColor"/><feComposite in="offsetColor" in2="offsetBlur" operator="in" result="offsetBlur"/><feBlend in="SourceGraphic" in2="offsetBlur"/></filter></defs><g filter="url(#dropShadow)"><g data-cell-id="0"><g data-cell-id="1"><g data-cell-id="aAaxQu1Zqau2Z3geJ1Tg-1"><g style="filter: drop-shadow(rgba(0, 0, 0, 0.25) 10px 3px 2px);"><path d="M 62.04 34.89 C 61.91 23.25 54.38 14.63 46.14 14.63 C 37.57 14.63 30.13 23.74 30.13 34.89 Z M 52.89 88.94 C 54.79 88.94 55.9 87.76 55.48 86.21 L 50.63 68.18 C 53.46 66.37 55.21 63.76 55.21 60.33 C 55.21 54.91 51.07 50.87 45.99 50.87 C 41.07 50.87 36.78 55.43 36.78 59.93 C 36.78 63.48 38.63 66.42 41.68 68.18 L 36.66 85.7 C 36.1 87.74 37.26 88.94 38.97 88.94 Z M 8.65 104 C 7.54 104 7 103.3 7 102.14 L 7 36.83 C 7 35.56 7.89 34.89 9.02 34.89 L 19.66 34.89 C 19.66 26.72 21.22 20.46 28.2 11.96 C 31.08 8.23 39.24 4 46.25 4 C 54.31 4 62.07 8.91 66.08 14.66 C 70.14 20.2 72.62 28.13 72.62 34.89 L 83.18 34.89 C 84.36 34.89 85 35.43 85 36.75 L 85 102.77 C 85 103.46 84.45 104 83.56 104 Z" fill="url(#mx-gradient-f078ba-1-385755-1-s-0)" stroke="none" pointer-events="all"/></g></g><g data-cell-id="aAaxQu1Zqau2Z3geJ1Tg-2"><g style="filter: drop-shadow(rgba(0, 0, 0, 0.25) 10px 3px 2px);"><path d="M 59.04 34.89 C 58.91 23.25 51.38 14.63 43.14 14.63 C 34.57 14.63 27.13 23.74 27.13 34.89 Z M 49.89 88.94 C 51.79 88.94 52.9 87.76 52.48 86.21 L 47.63 68.18 C 50.46 66.37 52.21 63.76 52.21 60.33 C 52.21 54.91 48.07 50.87 42.99 50.87 C 38.07 50.87 33.78 55.43 33.78 59.93 C 33.78 63.48 35.63 66.42 38.68 68.18 L 33.66 85.7 C 33.1 87.74 34.26 88.94 35.97 88.94 Z M 5.65 104 C 4.54 104 4 103.3 4 102.14 L 4 36.83 C 4 35.56 4.89 34.89 6.02 34.89 L 16.66 34.89 C 16.66 26.72 18.22 20.46 25.2 11.96 C 28.08 8.23 36.24 4 43.25 4 C 51.31 4 59.07 8.91 63.08 14.66 C 67.14 20.2 69.62 28.13 69.62 34.89 L 80.18 34.89 C 81.36 34.89 82 35.43 82 36.75 L 82 102.77 C 82 103.46 81.45 104 80.56 104 Z" fill="url(#mx-gradient-f078ba-1-385755-1-s-0)" stroke="none" pointer-events="all"/></g></g></g></g></g></svg>